<?xml version="1.0" standalone="no"?>
<!DOCTYPE svg PUBLIC "-//W3C//DTD SVG 20010904//EN"
 "http://www.w3.org/TR/2001/REC-SVG-20010904/DTD/svg10.dtd">
<svg version="1.0" xmlns="http://www.w3.org/2000/svg"
 width="512.000000pt" height="512.000000pt" viewBox="0 0 512.000000 512.000000"
 preserveAspectRatio="xMidYMid meet">
<metadata>
Created by potrace 1.16, written by Peter Selinger 2001-2019
</metadata>
<g transform="translate(0.000000,512.000000) scale(0.100000,-0.100000)"
fill="#000000" stroke="none">
<path d="M512 4139 c-116 -45 -192 -163 -192 -299 0 -130 64 -236 175 -290
l50 -25 2002 -3 2002 -2 56 21 c158 59 238 253 174 423 -23 64 -86 133 -150
168 l-44 23 -2010 2 c-2000 2 -2010 2 -2063 -18z"/>
<path d="M512 2859 c-72 -28 -144 -101 -172 -176 -29 -78 -25 -206 9 -272 33
-63 103 -126 167 -150 55 -21 60 -21 2044 -21 l1989 0 56 21 c158 59 238 253
174 423 -23 64 -86 133 -150 168 l-44 23 -2010 2 c-2000 2 -2010 2 -2063 -18z"/>
<path d="M534 1589 c-85 -24 -181 -125 -205 -212 -17 -65 -7 -194 20 -246 33
-63 103 -126 167 -150 55 -21 60 -21 2044 -21 l1989 0 56 21 c158 59 238 253
174 423 -23 64 -86 133 -150 168 l-44 23 -2010 2 c-1192 1 -2023 -2 -2041 -8z"/>
</g>
</svg>
